<svg width="95" height="21" viewBox="0 0 95 21" fill="none" xmlns="http://www.w3.org/2000/svg">
<path d="M49.7313 16.9412H45.3876C44.2752 16.9412 41.706 16.8618 41.706 12.8094V1.44678H38.7396V12.1472C38.7396 19.5369 43.9044 19.9077 45.3876 19.9077H49.7313V16.9412Z" fill="black"/>
<path d="M61.1237 5.73766V13.1538C61.1237 17.2327 58.5281 17.4181 57.4157 17.4181C56.3033 17.4181 53.7341 17.2327 53.7341 13.1538V1.42041H50.7676V12.5181C50.7676 19.9078 55.9325 20.2786 57.4157 20.2786C58.8989 20.2786 64.0637 19.9078 64.0637 12.5181V5.76415L61.1237 5.73766ZM62.5805 4.41335C63.4016 4.41335 64.0637 3.7512 64.0637 2.93013C64.0637 2.10905 63.4016 1.4469 62.5805 1.4469C61.7594 1.4469 61.0973 2.10905 61.0973 2.93013C61.0973 3.7512 61.7594 4.41335 62.5805 4.41335Z" fill="black"/>
<path d="M76.7174 19.9077H79.8428L76.1347 13.6834C77.7239 12.8358 79.1541 11.1937 79.1541 7.98887C79.1541 1.95001 73.9893 1.44678 72.5061 1.44678H66.7056V19.9077H69.6721V14.5575H72.5061C72.7445 14.5575 73.0888 14.531 73.4861 14.478L76.7174 19.9077ZM69.6721 11.591V4.38675H72.9564C74.0688 4.38675 76.2142 5.34025 76.2142 7.98887C76.2142 10.6375 74.0688 11.591 72.9564 11.591H69.6721Z" fill="black"/>
<path d="M91.8746 19.9077H95L91.2919 13.6834C92.8811 12.8358 94.3114 11.1937 94.3114 7.98887C94.3114 1.95001 89.1466 1.44678 87.6633 1.44678H81.8629V19.9077H84.8293V14.5575H87.6633C87.9017 14.5575 88.246 14.531 88.6433 14.478L91.8746 19.9077ZM84.8293 11.591V4.38675H88.1136C89.226 4.38675 91.3714 5.34025 91.3714 7.98887C91.3714 10.6375 89.226 11.591 88.1136 11.591H84.8293Z" fill="black"/>
<path d="M36.7359 14.2671C36.7359 19.7503 31.5707 19.9092 30.0873 19.9092H24.2863V1.44678H29.1867C30.6701 1.44678 35.8353 1.57916 35.8353 6.53257C35.8353 8.01588 35.3585 9.04897 34.6698 9.79063C35.8353 10.6118 36.7359 11.9627 36.7359 14.2671ZM27.253 8.62516H29.6105C30.723 8.62516 32.8686 8.51918 32.8686 6.53257C32.8686 4.54587 30.723 4.387 29.6105 4.387H27.253V8.62516ZM33.7957 14.2671C33.7957 11.8037 31.6501 11.5919 30.5376 11.5919H27.253V16.9425H30.5376C31.6501 16.9425 33.7957 16.7306 33.7957 14.2671Z" fill="black"/>
<path d="M20.0261 10.6683C20.0261 13.0195 19.1988 15.2956 17.689 17.098C16.1793 18.9004 14.0834 20.114 11.7687 20.5263C9.45395 20.9385 7.06798 20.5231 5.02881 19.3527C2.98964 18.1824 1.42734 16.3318 0.615641 14.1252C-0.196059 11.9186 -0.205387 9.49674 0.589291 7.28396C1.38397 5.07118 2.93197 3.20861 4.96206 2.02259C6.99215 0.836578 9.37485 0.402761 11.6927 0.797153C14.0105 1.19155 16.1157 2.38899 17.6392 4.17969L10.0131 10.6683L20.0261 10.6683Z" fill="black"/>
<path d="M1.38633 11.3724C1.22084 9.34411 1.77532 7.32236 2.9524 5.66227C4.12947 4.00218 5.85384 2.80992 7.82264 2.29492C9.79144 1.77992 11.8787 1.97511 13.7179 2.84621C15.5571 3.71731 17.0305 5.2086 17.8794 7.05814C18.7283 8.90768 18.8983 10.9972 18.3596 12.9596C17.8209 14.9221 16.608 16.632 14.9339 17.789C13.2597 18.9459 11.2314 19.476 9.20526 19.2861C7.1791 19.0962 5.28465 18.1984 3.85467 16.7505L10.013 10.6685L1.38633 11.3724Z" fill="white"/>
<circle cx="10.0131" cy="10.6684" r="6.16623" fill="#989898" stroke="black" stroke-width="1.13142"/>
<circle cx="10.0131" cy="10.668" r="2.31941" fill="black"/>
<circle cx="8.54225" cy="8.51869" r="1.07485" fill="white"/>
<circle cx="11.7102" cy="12.3654" r="0.62228" fill="white"/>
<ellipse cx="62.5705" cy="2.88429" rx="1.49382" ry="1.45216" fill="black"/>
<ellipse cx="62.5706" cy="2.88416" rx="1.29127" ry="1.25526" fill="white"/>
<path d="M62.5706 3.75623C63.0633 3.75623 63.4656 3.36751 63.4656 2.88449C63.4656 2.40147 63.0633 2.01275 62.5706 2.01275C62.0779 2.01275 61.6755 2.40147 61.6755 2.88449C61.6755 3.36751 62.0779 3.75623 62.5706 3.75623Z" fill="#5B4D4D" stroke="black" stroke-width="0.11903"/>
<ellipse cx="62.5705" cy="2.88423" rx="0.346026" ry="0.336376" fill="black"/>
<ellipse cx="62.3511" cy="2.57239" rx="0.160354" ry="0.155882" fill="white"/>
<ellipse cx="62.8237" cy="3.13029" rx="0.0928363" ry="0.0902472" fill="white"/>
</svg>
